<?xml version="1.0" encoding="UTF-8"?>
<svg id="_レイヤー_2" data-name="レイヤー 2" xmlns="http://www.w3.org/2000/svg" viewBox="0 0 1066.01 647.87">
  <g id="_レイヤー_2-2" data-name="レイヤー 2">
    <path d="M.62,200.19c43.14,107.61,86.28,215.22,129.42,322.83,12.15,30.3,24.3,60.61,36.45,90.91,1.81,4.52,4.84,7.98,9.98,8.6,4.69.56,9.53-1.49,11.96-5.73,30.38-53.21,64.73-104.31,90.67-159.95,7.69-16.48,14.66-33.3,20.8-50.42-5.88,2.39-11.75,4.78-17.63,7.17,63.82,28.86,128.26,56.36,194.33,79.68v-23.14c-62.8,15.1-119.25,49.25-182.05,64.34-7.47,1.8-11.11,11.16-7.17,17.63,16.31,26.77,42.57,44.22,70.88,56.39,14.86,6.39,30.09,11.73,45.42,16.86,16.9,5.66,33.76,11.19,51.22,14.89,36.01,7.64,72.83,8.94,109.46,6.46,34.5-2.34,69.39-6.53,102.42-17.18,35.27-11.37,67.86-30.27,92.78-57.99,5.33-5.93,4.28-14.48-2.43-18.85-54.24-35.27-111.52-64.2-173.72-82.56v23.14c67.42-19.19,129.21-53.37,196.17-73.76l-14.76-8.38c22.06,54.66,38.41,111.5,62.66,165.29,7.26,16.11,15.26,31.87,23.96,47.26,4.35,7.68,16.44,7.92,20.72,0,55.39-102.45,100.7-209.56,148.7-315.55,14.18-31.32,28.68-62.49,43.67-93.44,4.24-8.75-1.06-17-10.36-18.06-89.58-10.14-179.14-19.24-269.41-18.39-27.92.26-55.82,1.26-83.7,2.69-8.13.42-13.21,7.3-11.57,15.19,3.93,18.91,8.95,37.7,18.47,54.66,5.47-5.47,10.95-10.95,16.42-16.42-27.79-15.17-57.48-27.07-87.23-37.77-29.31-10.54-59.27-20.02-89.83-26.21.96,7.31,1.91,14.62,2.87,21.93,14.75-7.87,25.71-19.24,36.16-32.02,5.3-6.48,11.58-12.53,16.2-19.5,3.65-5.49,5.85-12.17,6.96-18.64,2.63-15.38,1.18-30.89-1.57-46.16-2.36-13.14-5.72-26.4-10.64-38.84-4.05-10.24-9.47-20.19-19.65-25.46-9.95-5.15-21.44-6.47-32.28-8.67-31.25-6.33-65.84-2.62-95.32,9.57-15.47,6.4-31.01,16.05-42.38,28.46-12.26,13.38-17.98,30.21-16.79,48.3.53,8.05,7.22,13.3,15.19,11.57,14.16-3.07,28.39-6.53,42.95-6.73,6.81-.09,13.38.56,19.93,2.49,2.87.84,5.68,1.84,8.32,3.25.83.44,1.65.91,2.44,1.43.72.46,2.8,2.21,1.12.74,1.57,1.37,3.08,2.77,4.49,4.3.74.8,1.44,1.63,2.14,2.47.05.06,1.17,1.51.44.55-.68-.91.63.91.74,1.08,2.96,4.34,5.55,8.88,7.79,13.64,1.31,2.79,1.16,2.45,2.27,5.35,1,2.62,1.91,5.28,2.73,7.96,1.58,5.13,2.85,10.36,3.8,15.64.26,1.44.5,2.89.7,4.34-.24-1.78.16,1.73.21,2.29.25,2.73.4,5.47.42,8.21.02,2.56-.1,5.1-.33,7.65-.24,2.82.28-.57-.19,1.35-.3,1.24-.51,2.49-.83,3.73l5.51-7.17c.05-.03-2.94,1.44-1.37.73,1.35-.61-.76.29-1.07.4-1.63.57-3.26,1.09-4.92,1.54-3.65.98-7.38,1.68-11.12,2.25-4.26.65,1.04-.11-1.49.21-.91.11-1.83.22-2.74.32-2.1.23-4.21.43-6.31.61-4.32.37-8.64.67-12.97.96-17.15,1.15-33.96,2.46-50.46,7.55-19.44,6.01-38.62,13.05-56.79,22.27-9.47,4.81-18.64,10.2-27.46,16.12-.68.46-5.41,3.09-5.46,3.7.25-2.7,9.53.28,11.07,1.77.79.77,2.65,5.37,2.03,2.86-.45-1.78.3,1.44.17,1.45-.03,0-.1-1.75-.11-2.01-.06-2.69.25-5.35.52-8.01.29-2.88-.31,2.02-.02.17.11-.72.22-1.43.33-2.15.23-1.38.47-2.76.73-4.13.62-3.3,1.31-6.59,2.11-9.85,1.55-6.29-2.02-13.01-8.38-14.76-6.85-1.88-12.33,2.35-14.76,8.38l-.02.05,3.09-5.3c.29-.33,5.99-3.16,4.54-2.78-.77.2,4.18-.24,1.74-.27-1.31-.02-2.62.09-3.93.08-4.26-.01-8.53-.22-12.79-.44-13.14-.66-26.27-1.62-39.39-2.59-28.69-2.11-57.36-4.58-86.07-6.38-15.64-.98-31.31-.88-46.98-.95-26.26-.13-52.53-.19-78.79-.24-17.15-.03-34.31-.06-51.46-.08-15.44-.02-15.47,23.98,0,24,41.64.05,83.27.12,124.91.3,16.1.07,32.26-.21,48.33.73,29.1,1.7,58.15,4.26,87.22,6.41,14.83,1.1,29.67,2.22,44.52,2.91,10.34.48,23.48,2.69,28.23-9.09-7.71-2.13-15.43-4.25-23.14-6.38-1.91,7.75-3.32,15.68-4.16,23.62-.5,4.68-.78,9.85.61,14.41,2.36,7.68,9.62,12.81,17.74,10.71,3.71-.96,6.58-3.36,9.69-5.45,4.52-3.03,9.14-5.93,13.83-8.69,8.31-4.87,16.89-9.25,25.69-13.17,15.83-7.05,32.99-13.39,49.92-17.24,7.43-1.69,12.14-2.03,20.22-2.67s16.32-1.07,24.47-1.74c8.47-.7,17.01-1.58,25.32-3.37,7.59-1.63,18.8-4.13,22.16-11.83,2.68-6.13,2.85-13.93,2.81-20.54-.05-7.73-1.06-15.52-2.54-23.1-2.83-14.6-8.05-29.28-15.77-42.02-9.56-15.77-22.91-26.27-41.14-30.35-23.86-5.35-48.04.26-71.43,5.34l15.19,11.57c-.22-3.33-.26-6.65,0-9.98.01-.17.27-2.37.04-.76.09-.63.21-1.27.34-1.9.35-1.64.73-3.26,1.22-4.86.96-3.11.96-3.2,2.87-6.54.59-1.04,1.23-2.06,1.9-3.05,1.56-2.32.65-1.13,2.18-2.86,8.3-9.43,17.99-16.09,29.49-21.93,1.32-.67,2.65-1.3,4-1.91,1.44-.65.75-.35,2.64-1.08,3.27-1.26,6.59-2.39,9.95-3.4,7.15-2.16,14.45-3.81,21.81-5.04,12.72-2.13,27.18-2.95,40.53-1.24-1.65-.21,2.11.36,2.56.44,1.54.28,3.07.61,4.6.92,3.09.63,6.19,1.22,9.28,1.83,4.62.91,9.27,1.78,13.78,3.14,1.01.31,1.99.71,3,1.01,1.92.56-2.15-1.33.16.11.68.42,1.44.82,2.14,1.19,2.47,1.33-.76-1.03.34.16.55.59,1.2,1.13,1.77,1.7,1.01,1.01,1.39,1.96.23.14,1.13,1.79,2.27,3.52,3.22,5.42.51,1.01.98,2.04,1.43,3.08-.94-2.17.36,1.03.61,1.7,1.13,3.04,2.14,6.13,3.1,9.24,1.74,5.63,3.27,11.32,4.59,17.06,2.96,12.86,4.73,23.58,4.26,36.98-.06,1.71-.18,3.42-.33,5.13-.02.28-.29,2.37-.03.52-.11.8-.26,1.6-.41,2.4-.3,1.54-.65,3.08-1.08,4.59-.21.73-.48,1.45-.68,2.18-.57,2.08.29-.39-.23.74-.61,1.3-1.33,2.52-2.04,3.76-.26.45-.57.88-.88,1.31,1.43-1.99-.38.32-.66.62-3.08,3.31-5.98,6.81-8.86,10.3-10.18,12.36-19.57,23.62-33.65,31.13-8.78,4.68-7.25,19.88,2.87,21.93,30.05,6.08,59.5,15.36,88.34,25.68,28.51,10.2,56.38,21.36,83,35.89,10.52,5.74,22.37-5.81,16.42-16.42-8.49-15.13-12.55-32.06-16.05-48.92-3.86,5.06-7.71,10.13-11.57,15.19,47.25-2.43,94.58-3.53,141.89-2.13,42.73,1.26,85.35,4.58,127.88,8.81,27.81,2.77,55.58,5.87,83.34,9.01-3.45-6.02-6.91-12.04-10.36-18.06-50.87,105.01-94.8,213.21-145.8,318.14-14.88,30.61-30.38,60.9-46.56,90.84h20.72c-28.31-50.04-46.36-103.99-65.68-157.88-5.89-16.42-12-32.76-18.53-48.93-2.38-5.89-7.97-10.45-14.76-8.38-66.96,20.39-128.75,54.57-196.17,73.76-11.49,3.27-11.34,19.8,0,23.14,29.65,8.75,58.56,19.64,86.36,33.17,28.26,13.75,55.29,29.85,81.62,46.97-.81-6.28-1.62-12.56-2.43-18.85-42.19,46.94-103.94,61.71-164.48,67.06-34.21,3.02-69.01,3.77-103-1.9-32.12-5.36-63.47-16.09-93.86-27.63-28.4-10.79-57.1-25.75-73.15-52.1-2.39,5.88-4.78,11.75-7.17,17.63,62.8-15.1,119.25-49.25,182.05-64.34,5.1-1.23,8.81-6.43,8.81-11.57,0-5.52-3.79-9.8-8.81-11.57-64.13-22.63-126.65-49.25-188.6-77.26-7.41-3.35-14.82-.66-17.63,7.17-20.23,56.37-51.18,107.51-81.92,158.61-9.18,15.26-18.3,30.56-27.13,46.03,7.31.96,14.62,1.91,21.93,2.87-43.14-107.61-86.28-215.22-129.42-322.83-12.15-30.3-24.3-60.61-36.45-90.91-2.41-6.01-8.01-10.24-14.76-8.38-5.71,1.57-10.81,8.71-8.38,14.76Z"/>
  </g>
</svg>