<?xml version="1.0" encoding="UTF-8"?>
<svg id="_レイヤー_2" data-name="レイヤー 2" xmlns="http://www.w3.org/2000/svg" viewBox="0 0 996.5 362.72">
  <g id="_レイヤー_2-2" data-name="レイヤー 2">
    <path d="M8.89,156.76c43.28-26.65,91.2-45.16,141.15-54.59,50.12-9.46,100.86-8.27,151.2-1.24,99.58,13.91,201.92,47.31,302.58,22.8,38.22-9.31,81.94-31.38,94.46-71.78,2.87-9.26,4.4-20.54,1.77-30.02-3.15-11.31-13.3-16.3-23.85-19.12-23.69-6.33-49.08-1.41-70.75,9.24s-40.32,27.61-56.94,45.21c-17.19,18.2-33.23,37.47-48.9,56.98-31.07,38.68-60.61,78.67-94.05,115.38-61.27,67.24-146.45,128.5-242.16,120.5-11.12-.93-22.08-3-32.84-5.97l4.4,5.79c-.55-18.47,21.19-27.14,35.9-31.57,24.08-7.25,51.54-13.8,76.33-6.6,11.9,3.46,22.85,9.36,33.99,14.68s21.5,9.68,32.65,13.44c18.74,6.32,38.2,9.74,57.94,10.73,21.81,1.1,43.79.14,65.59-.69,20.27-.77,40.55-3.55,60.08-9.11,38.42-10.94,72.45-32.38,105.42-54.33,10.08-6.71,20.09-13.5,30.14-20.25,9.23-6.2,19.07-11.87,27.77-18.81,5.87-4.69,11.31-10.05,16.18-15.77,4.45-5.22,10.02-11.74,10.57-18.91.58-7.55-6.03-14.15-12.19-17.52-6.32-3.47-13.65-5.03-20.8-5.43-16.74-.95-35.54,2.4-50.95,9.03-14.6,6.28-27.75,16.32-40.19,26.09-14.36,11.28-29.81,24.83-36.59,42.27-6.46,16.62,2.22,33.83,12.33,46.99,11.53,15.01,27.13,27.76,45,34.37,19.18,7.09,41.39,1.71,60.38-3.64,22.69-6.4,44.35-16.47,64.36-28.88,41.61-25.79,75.81-61.48,107.1-98.72,8.08-9.62,16.01-19.37,23.89-29.14l-9.42-7.27c-20.68,30.32-54.81,50.94-91.33,54.91-7.49.81-7.88,12.3,0,12,29.58-1.11,59.15-2.22,88.73-3.33,6.53-.24,8.44-10.21,1.6-11.79-32.5-7.48-73.1,6.96-80.93,42.57-3.36,15.29-.53,32.06,9.28,44.48,11.75,14.88,31.22,18.44,49.21,17.63,63.81-2.87,139.16-35.79,160.72-100.66,2.69-8.1,5.37-17.58,2.47-25.98-2.95-8.55-10.94-12.96-19.47-14.33-17.12-2.74-33.36,3.69-46.54,14.35-13.7,11.09-24.15,26.38-31.76,42.15s-14.43,35.2-13.44,53.79,9.84,34.15,25.63,43.24c14.91,8.59,33.43,10.73,50.33,9.14,21.64-2.04,37.89-17.75,47.82-36.17,9.72-18.04,15.42-39.99,13.32-60.54-1.68-16.4-9.97-34.11-28.83-34.28-4.67-.04-9.35,1.05-13.7,2.66-7.19,2.65-4.08,14.25,3.19,11.57,3.6-1.33,6.79-2.21,10.19-2.23,1.9,0,2.44.06,3.5.34,1.79.46,2.41.69,3.26,1.18,4.19,2.4,7.01,6.89,8.65,12.28,4.59,15.14,1.64,32.94-3.44,47.98-5.32,15.74-14.73,32.08-29.58,40.51-8.86,5.03-18.82,5.48-28.81,5.02-14.49-.67-29.89-4.79-39.9-15.91-21.6-23.99-4.16-64.42,10.46-87.41,7.93-12.47,18.17-24.24,31.41-31.21,6.07-3.19,12.79-5.1,19.67-5.16s16.13.96,17.18,8.96c.91,6.97-2.31,14.92-4.76,21.32s-5.7,12.51-9.39,18.27c-7.46,11.62-17.22,21.73-28.09,30.2-22.89,17.84-50.78,28.88-79.02,34.76-25.9,5.39-67.55,11.68-77.17-21.26-3.61-12.37-1.65-26.53,6.03-37.01,8.62-11.76,23.05-18.48,37.31-20.03,7.39-.8,14.81-.34,22.04,1.33l1.6-11.79c-29.58,1.11-59.15,2.22-88.73,3.33v12c41.04-4.46,78.41-26.72,101.69-60.85,3.79-5.56-5.12-12.6-9.42-7.27-56.4,69.9-123.78,148.26-218.91,159.53-8.71,1.03-16.25.96-24.58-2.02s-15.36-7.47-21.92-12.68c-12.81-10.17-25.75-24.64-29.17-41.13-3.31-15.97,13.49-31.3,24.04-40.76,11.82-10.6,25.04-20.53,38.82-28.44,14.54-8.36,30.73-11.27,47.32-12.21,5.92-.34,11.46-.15,17.18,1.57,2.99.9,5.98,2.18,8.35,4.26,1.21,1.06,2.56,2.51,3.09,4.05-.09-.26.1-.04-.22.68-4.96,11.32-16.16,21.88-26.28,28.57-19.76,13.06-39.29,26.47-59.07,39.51-31.15,20.52-63.4,40.11-99.77,49.75-18.99,5.03-38.4,7.2-58,7.75-20.61.59-41.29,1.6-61.9.46-18.75-1.04-37.08-4.59-54.84-10.73-21.79-7.54-41.51-20.28-63.5-27.12-24.27-7.54-49.38-2.76-73.42,3.2-16.72,4.15-35.75,9.75-47.38,23.36-5.5,6.44-8.55,14.16-8.3,22.68.08,2.65,1.81,5.07,4.4,5.79,89.32,24.62,181.81-19.14,247.39-78.24,36.14-32.57,66.91-70.51,96.93-108.63,29.99-38.08,59.24-77.41,93.66-111.69,16.87-16.81,36.13-32.35,58.99-40.02,11.37-3.81,23.29-5.76,35.3-4.98,9.1.59,25.86,2.44,28.85,12.95,2.56,8.98-.06,20.26-3.55,28.65-3.6,8.65-9.27,16.34-15.83,22.97-13.93,14.08-32.02,24-50.66,30.34-45.99,15.65-96.32,15.39-144.07,10.19-50.49-5.5-100.09-16.92-150.19-24.95-49.56-7.94-99.52-12.26-149.54-6.04-48.47,6.02-95.7,20.18-139.39,42.04-11.07,5.54-21.86,11.58-32.4,18.07-6.56,4.04-.54,14.43,6.06,10.36h0Z"/>
  </g>
</svg>