<?xml version="1.0" encoding="UTF-8"?>
<svg id="_レイヤー_2" data-name="レイヤー 2" xmlns="http://www.w3.org/2000/svg" viewBox="0 0 574.74 322.49">
  <defs>
    <style>
      .cls-1 {
        fill: #ff365d;
      }
    </style>
  </defs>
  <g id="_レイヤー_1-2" data-name="レイヤー 1">
    <g>
      <path class="cls-1" d="M350.7,207.93l-60.75-145.95H50.15L82.74,0h280.45l25.58,61.47c3.6-3.48,7.41-6.86,11.44-10.13,21.02-17.04,46.77-30.07,76.54-38.74,29.12-8.48,61.17-12.6,97.98-12.6l-34.4,64.48c-23.81,0-45.58,5.53-70.62,19.62-6.28,3.53-35.55,26.59-38.08,49.84-1.02,9.41-.81,11.98-.76,12.15l-80.17,61.84Z"/>
      <polygon class="cls-1" points="139.09 199.06 51.91 199.06 96.51 117.47 183.7 117.47 139.09 199.06"/>
      <polygon class="cls-1" points="265.3 134.93 11.79 134.93 44.38 72.95 297.89 72.95 265.3 134.93"/>
      <path class="cls-1" d="M334.27,268.07c0,8.53-28.95,15.44-64.66,15.44s-64.66-6.91-64.66-15.44,28.95-15.44,64.66-15.44,64.66,6.91,64.66,15.44ZM269.62,226.72C120.71,226.72,0,245.23,0,268.07s120.71,41.36,269.62,41.36,269.62-18.52,269.62-41.36-120.71-41.36-269.62-41.36Z"/>
      <g>
        <path class="cls-1" d="M527.07,299.86l-1.05,4.01h-6.77l-4.86,18.62h-4.76l4.86-18.62h-6.8l1.05-4.01h18.33Z"/>
        <path class="cls-1" d="M546.28,299.86l-1.05,4.01h-6.77l-4.86,18.62h-4.76l4.86-18.62h-6.8l1.05-4.01h18.33Z"/>
      </g>
    </g>
  </g>
</svg>